<svg xmlns="http://www.w3.org/2000/svg" width="1200" height="800" viewBox="0 0 1200 800" role="img" aria-label="Sketch: geological cross-section">
  <rect width="100%" height="100%" fill="#fffdf6"/>
  <g stroke="#2b2b2b" stroke-width="2" fill="none" stroke-linecap="round" transform="translate(30,40)">
    <path d="M0,520 C200,320 400,420 600,220 C800,40 1000,360 1200,120" />
    <path d="M0,460 C200,260 400,360 600,160 C800,-20 1000,300 1200,60" opacity="0.85"/>
    <path d="M0,560 C150,360 300,460 450,260 600,120 750,380 900,200 1050,60 1200,40" opacity="0.6"/>
  </g>
  <g transform="translate(40,620)" fill="#f4e9df">
    <rect x="0" y="0" width="1120" height="40"/>
  </g>
  <text x="40" y="740" font-family="Inter, sans-serif" font-size="18" fill="#475569">Sketch: Geological cross-section</text>
</svg>